<svg width="30" height="38" viewBox="0 0 30 38" fill="none" xmlns="http://www.w3.org/2000/svg">
<path d="M29.6668 32.915V11.6666L18.6668 0.666626H4.00016C1.9835 0.666626 0.35183 2.31663 0.35183 4.33329L0.333496 33.6666C0.333496 35.6833 1.96516 37.3333 3.98183 37.3333H26.0002C26.8252 37.3333 27.5585 37.0583 28.1818 36.6L20.0602 28.4783C18.5935 29.4316 16.8702 30 15.0002 30C9.94016 30 5.83349 25.8933 5.83349 20.8333C5.83349 15.7733 9.94016 11.6666 15.0002 11.6666C20.0602 11.6666 24.1668 15.7733 24.1668 20.8333C24.1668 22.7033 23.5985 24.4266 22.6452 25.875L29.6668 32.915ZM9.50016 20.8333C9.50016 23.8766 11.9568 26.3333 15.0002 26.3333C18.0435 26.3333 20.5002 23.8766 20.5002 20.8333C20.5002 17.79 18.0435 15.3333 15.0002 15.3333C11.9568 15.3333 9.50016 17.79 9.50016 20.8333Z" fill="#DF0505"/>
</svg>
