<?xml version="1.0" encoding="UTF-8"?>
<svg id="Layer_2" data-name="Layer 2" xmlns="http://www.w3.org/2000/svg" viewBox="0 0 58.19 58.19">
  <defs>
    <style>
      .cls-1 {
        fill: #df0505;
      }

      .cls-2 {
        fill: #ffefef;
      }
    </style>
  </defs>
  <g id="Layer_1-2" data-name="Layer 1">
    <g>
      <circle class="cls-2" cx="29.09" cy="29.09" r="29.09"/>
      <path class="cls-1" d="m45.2,43.03v-21.25l-11-11h-14.67c-2.02,0-3.65,1.65-3.65,3.67l-.02,29.33c0,2.02,1.63,3.67,3.65,3.67h22.02c.82,0,1.56-.28,2.18-.73l-8.12-8.12c-1.47.95-3.19,1.52-5.06,1.52-5.06,0-9.17-4.11-9.17-9.17s4.11-9.17,9.17-9.17,9.17,4.11,9.17,9.17c0,1.87-.57,3.59-1.52,5.04l7.02,7.04Zm-20.17-12.08c0,3.04,2.46,5.5,5.5,5.5s5.5-2.46,5.5-5.5-2.46-5.5-5.5-5.5-5.5,2.46-5.5,5.5Z"/>
    </g>
  </g>
</svg>